<svg width="16" height="15" viewBox="0 0 16 15" fill="none" xmlns="http://www.w3.org/2000/svg">
<path d="M7.56251 0C11.7393 0 15.125 3.17192 15.125 7.08333C15.125 10.9948 11.7393 14.1667 7.56251 14.1667C3.38574 14.1667 0 10.9948 0 7.08333C0 3.17192 3.38574 0 7.56251 0ZM7.56251 1.18079C4.08754 1.18079 1.26067 3.82854 1.26067 7.08333C1.26067 10.3381 4.08754 12.9859 7.56251 12.9859C11.0375 12.9859 13.8643 10.3381 13.8643 7.08333C13.8643 3.82854 11.0375 1.18079 7.56251 1.18079ZM6.99532 2.83333C7.28232 2.83333 7.51978 3.03332 7.55729 3.29252L7.56251 3.36458V7.08333H10.0203C10.3334 7.08333 10.5875 7.32133 10.5875 7.61458C10.5875 7.8834 10.374 8.10581 10.0972 8.14095L10.0203 8.14583H6.99532C6.70832 8.14583 6.47086 7.94587 6.43335 7.68662L6.42813 7.61458V3.36458C6.42813 3.07133 6.68223 2.83333 6.99532 2.83333Z" fill="white"/>
</svg>
