<svg width="72" height="23" viewBox="0 0 72 23" fill="none" xmlns="http://www.w3.org/2000/svg">
<path d="M59.9102 17.2462C59.9102 17.2996 59.8871 17.321 59.8373 17.3228L59.6596 17.3121C59.6774 17.2848 59.6982 17.2597 59.7218 17.2373C59.7591 17.207 59.8053 17.1857 59.8427 17.1572C59.88 17.1287 59.8978 17.0486 59.8338 16.9791C59.814 16.9576 59.7892 16.9413 59.7616 16.9317C59.734 16.9221 59.7044 16.9194 59.6756 16.9239C59.6649 16.9239 59.6507 16.9061 59.6347 16.8937L59.6702 16.8064C59.6187 16.7761 59.6063 16.8367 59.5725 16.8402C59.5387 16.8438 59.4747 16.8402 59.425 16.8402C59.3752 16.8402 59.2934 16.8402 59.2597 16.915C59.2509 16.9371 59.2353 16.9558 59.2152 16.9684C59.1262 17.0114 59.0547 17.0837 59.0126 17.1732C58.9699 17.264 58.858 17.28 58.826 17.3744C58.698 17.4741 58.6073 17.6201 58.4563 17.6913C58.4074 17.7154 58.3671 17.754 58.3407 17.8017C58.3117 17.8566 58.2721 17.9052 58.2242 17.9447C58.1763 17.9841 58.1211 18.0136 58.0617 18.0314C57.9906 18.0492 57.9355 18.1187 57.8697 18.1614C57.8146 18.3288 57.6066 18.3394 57.5391 18.5033C57.4467 18.5157 57.4005 18.6047 57.3151 18.6279C57.2418 18.6553 57.1764 18.7006 57.125 18.7596C57.0094 18.8594 56.9081 18.9911 56.7339 19C56.7055 19 56.6806 19.0321 56.6504 19.0374C56.5668 19.0517 56.5242 19.13 56.4566 19.1638C56.3891 19.1977 56.2913 19.2172 56.2185 19.2564C56.1316 19.3089 56.0384 19.3501 55.9412 19.3793C55.8606 19.4072 55.7863 19.4508 55.7226 19.5075C55.6426 19.5698 55.5697 19.6731 55.4364 19.6303C55.3955 19.6179 55.3457 19.6499 55.3031 19.6659C55.2254 19.7021 55.1459 19.7342 55.0649 19.7621C55.0097 19.7688 54.9567 19.7884 54.9104 19.8193C54.8641 19.8502 54.8257 19.8916 54.7983 19.9401C54.7841 19.9651 54.7467 19.974 54.7219 19.9918C54.6204 20.0505 54.5116 20.0954 54.3984 20.1253C54.3759 20.1333 54.3518 20.136 54.3281 20.1332C54.3044 20.1304 54.2816 20.1223 54.2615 20.1093C54.2516 20.1041 54.2407 20.1015 54.2295 20.1015C54.2184 20.1015 54.2074 20.1041 54.1975 20.1093C54.0715 20.1684 53.9362 20.2051 53.7976 20.2179C53.6027 20.2635 53.4204 20.3523 53.2644 20.4779H53.1897C53.0264 20.4787 52.866 20.5216 52.724 20.6025C52.7047 20.6278 52.6785 20.647 52.6485 20.6577C52.6186 20.6684 52.5862 20.6703 52.5552 20.663C52.3683 20.6561 52.182 20.6876 52.0077 20.7556C51.9313 20.7734 51.8531 20.7805 51.7767 20.7912C51.4212 20.85 51.0657 20.866 50.7102 20.9355C50.6711 20.9355 50.632 20.9355 50.5929 20.9461C50.4992 20.9474 50.406 20.9606 50.3156 20.9853C50.1521 21.0423 49.969 21.0102 49.8179 21.1224C49.7002 21.1527 49.5761 21.1459 49.4624 21.1028C49.4449 21.0946 49.4258 21.0903 49.4064 21.0903C49.3871 21.0903 49.368 21.0946 49.3505 21.1028C49.2954 21.1384 49.2545 21.1509 49.2012 21.1028C49.1607 21.0768 49.1146 21.0607 49.0668 21.0557C49.0189 21.0508 48.9706 21.0572 48.9257 21.0743L48.6484 21.1384C48.6115 21.1509 48.5715 21.1509 48.5346 21.1384C48.4623 21.1047 48.3833 21.0877 48.3036 21.0886C48.248 21.0881 48.1926 21.0822 48.1383 21.0708C48.0223 21.0315 47.8961 21.0353 47.7828 21.0815C47.757 21.0929 47.7292 21.0989 47.701 21.0989C47.6728 21.0989 47.645 21.0929 47.6192 21.0815C47.5837 21.0625 47.5461 21.0476 47.5073 21.0369C47.4184 21.0369 47.3295 20.9639 47.2371 21.0369C47.209 21.0561 47.1746 21.0632 47.1412 21.0569C47.1079 21.0505 47.0784 21.0312 47.0593 21.0031C47.0408 20.9812 47.0164 20.9651 46.989 20.9566C46.9616 20.9481 46.9324 20.9475 46.9047 20.955C46.7048 20.976 46.5027 20.9554 46.311 20.8945C46.2282 20.8629 46.1401 20.8478 46.0515 20.85C45.9215 20.8633 45.7907 20.8326 45.6801 20.7627C45.6706 20.7554 45.6596 20.7502 45.6479 20.7478C45.6362 20.7453 45.6241 20.7455 45.6125 20.7485C45.5576 20.7641 45.4998 20.7668 45.4437 20.7563C45.3875 20.7458 45.3346 20.7224 45.289 20.688C45.1462 20.6087 44.9848 20.5694 44.8216 20.574C44.7464 20.5775 44.6716 20.5632 44.603 20.5323C44.5344 20.5013 44.4741 20.4546 44.427 20.396C44.3247 20.2878 44.1921 20.2133 44.0466 20.1823C44.0071 20.174 43.9684 20.162 43.9311 20.1467C43.7391 20.0755 43.5542 19.99 43.3641 19.9152C43.2435 19.8902 43.1296 19.8398 43.0299 19.7674C42.9895 19.7389 42.9406 19.7251 42.8913 19.7283C42.8237 19.7283 42.7615 19.7283 42.7313 19.6517C42.7313 19.6339 42.6904 19.6179 42.6691 19.6196C42.6107 19.6221 42.5525 19.6121 42.4982 19.5903C42.444 19.5685 42.395 19.5354 42.3545 19.4932C42.3847 19.3668 42.3794 19.349 42.3029 19.3045L42.0417 19.1656C41.9491 19.0966 41.8474 19.0409 41.7395 19C41.7199 19 41.7075 18.9644 41.6897 18.9466C41.5905 18.8258 41.4653 18.729 41.3236 18.6635C41.2738 18.6831 41.2276 18.7027 41.1796 18.7169C41.1718 18.7176 41.164 18.7164 41.1569 18.7133C41.1497 18.7102 41.1435 18.7053 41.1387 18.6991C41.1228 18.6793 41.1134 18.655 41.1121 18.6297C41.1187 18.58 41.1068 18.5295 41.0786 18.4881C41.0504 18.4467 41.0078 18.4172 40.9592 18.4053C40.8614 18.3404 40.7749 18.2598 40.7032 18.1667C40.6855 18.1385 40.6612 18.1151 40.6324 18.0983C40.6036 18.0816 40.5712 18.0721 40.5379 18.0706C40.4915 18.0689 40.4466 18.0537 40.4087 18.0268C40.3708 17.9999 40.3416 17.9625 40.3246 17.9192C40.2757 17.8029 40.1885 17.7068 40.0776 17.6468C39.9907 17.5853 39.907 17.5194 39.827 17.4492C39.7185 17.3708 39.6083 17.2925 39.5088 17.2052C39.393 17.0951 39.286 16.9761 39.1889 16.8491C39.0317 16.6605 38.8398 16.5039 38.6236 16.388C38.502 16.3264 38.3871 16.2524 38.2806 16.1672C38.2659 16.1604 38.2504 16.1556 38.2344 16.153C38.2413 16.1785 38.2503 16.2035 38.261 16.2277C38.2859 16.2722 38.3179 16.3132 38.3428 16.3577C38.3711 16.4103 38.3966 16.4644 38.4192 16.5197C38.4192 16.5197 38.4192 16.5536 38.3997 16.5607C38.3843 16.5668 38.3671 16.5668 38.3517 16.5607C38.3365 16.5524 38.3246 16.5392 38.3179 16.5233C38.2909 16.4735 38.2534 16.4301 38.208 16.3963C38.1625 16.3625 38.1103 16.339 38.0549 16.3274C38.043 16.3809 38.0499 16.4369 38.0744 16.4859C38.0789 16.5106 38.0789 16.536 38.0744 16.5607C38.0744 16.5607 38.0638 16.5749 38.0566 16.5785C38.0495 16.5821 38.0353 16.5785 38.0318 16.5785C38.0051 16.534 37.9838 16.4877 37.9536 16.445C37.9536 16.4307 37.9162 16.4307 37.8807 16.4183L37.95 16.6355C37.9961 16.7497 37.9961 16.8774 37.95 16.9916C37.9447 17.0162 37.9447 17.0417 37.95 17.0664C37.9909 17.0913 38.0406 17.1038 38.062 17.1358C38.0874 17.1834 38.1037 17.2353 38.11 17.2889C38.1179 17.3144 38.1179 17.3418 38.11 17.3673C38.1019 17.388 38.0991 17.4104 38.1019 17.4325C38.1047 17.4546 38.113 17.4756 38.126 17.4937C38.1651 17.5649 38.1988 17.6397 38.2451 17.7074C38.44 18.0087 38.6556 18.296 38.8903 18.5674C39.1675 18.9021 39.4661 19.2155 39.7612 19.5377C39.9372 19.73 40.1241 19.912 40.3211 20.0826C40.5389 20.2891 40.7771 20.4728 41.0321 20.631C41.1192 20.6826 41.2098 20.7414 41.288 20.809C41.5369 20.9871 41.8017 21.1313 42.063 21.2809C42.3301 21.4218 42.6049 21.5478 42.8859 21.6584C43.0139 21.7118 43.1401 21.7705 43.2663 21.8364C43.4743 21.9361 43.7 21.9967 43.8991 22.1159C43.9402 22.1378 43.9837 22.1545 44.0288 22.1658C44.3399 22.2548 44.6474 22.3545 44.9602 22.4275C45.1664 22.4667 45.3601 22.554 45.5699 22.5771C45.7421 22.5997 45.9121 22.6366 46.0782 22.6875C46.3839 22.6875 46.6701 22.7908 46.9669 22.8228L47.6779 22.9118C47.9161 22.9403 48.1578 22.9492 48.3978 22.967L48.6964 22.9866C48.9662 23.0045 49.237 23.0045 49.5069 22.9866C49.8386 22.9783 50.1694 22.9473 50.4969 22.894C50.5144 22.8896 50.5327 22.8896 50.5502 22.894C50.6835 22.9163 50.82 22.909 50.9502 22.8727C51.1634 22.8495 51.3803 22.8727 51.5936 22.8335C51.6978 22.8061 51.8034 22.7841 51.91 22.7676C52.1766 22.7267 52.4432 22.6911 52.7063 22.6305C52.9693 22.57 53.2395 22.5272 53.4954 22.4525C53.7069 22.3937 53.9167 22.3332 54.1246 22.262C54.3311 22.1858 54.5418 22.1216 54.7556 22.0697C54.9371 22.0222 55.1153 21.9627 55.2889 21.8916C55.4666 21.8222 55.6444 21.7509 55.8097 21.6726L56.318 21.4518L56.8157 21.2114C56.9277 21.1545 57.0521 21.1206 57.1605 21.0583L57.7826 20.7022L58.3834 20.3105C58.6233 20.1502 58.842 19.9544 59.0855 19.8048C59.3472 19.6438 59.5863 19.4486 59.7964 19.2244C59.8075 19.2098 59.8214 19.1977 59.8373 19.1888C59.9648 19.1046 60.0803 19.0034 60.1804 18.8878C60.1984 18.8683 60.2187 18.851 60.2408 18.8362C60.4139 18.7206 60.5665 18.5767 60.6923 18.4107C60.7964 18.3113 60.8766 18.1895 60.9269 18.0546C60.9354 18.0298 60.9339 18.0026 60.9226 17.9789C60.9113 17.9553 60.8911 17.937 60.8665 17.9281C60.8262 17.9137 60.7845 17.9035 60.742 17.8979C60.7116 17.8949 60.6822 17.8856 60.6556 17.8705C60.6289 17.8555 60.6057 17.8351 60.5874 17.8106C60.5998 17.7376 60.6176 17.6611 60.6265 17.5863C60.6286 17.5672 60.6233 17.5481 60.6117 17.5329C60.6001 17.5177 60.5832 17.5075 60.5643 17.5044C60.5324 17.5407 60.4973 17.5741 60.4594 17.6041C60.4132 17.6397 60.3528 17.6593 60.3048 17.6931C60.2386 17.7334 60.1787 17.7832 60.127 17.8409C59.8813 18.128 59.6158 18.3975 59.3325 18.6475C59.2268 18.7338 59.1292 18.8298 59.041 18.9341C58.9178 18.9951 58.804 19.0737 58.7033 19.1674C58.5809 19.2654 58.4458 19.3463 58.3016 19.4078C58.2785 19.4078 58.2625 19.4398 58.243 19.4558C58.058 19.635 57.8448 19.7824 57.612 19.8921C57.5891 19.9036 57.5681 19.9186 57.5498 19.9366C57.339 20.113 57.0981 20.25 56.8388 20.3408C56.7822 20.3591 56.7305 20.3902 56.6877 20.4316C56.6405 20.4682 56.5837 20.4905 56.5242 20.4957C56.4665 20.5091 56.4105 20.5288 56.3571 20.5544C56.3109 20.574 56.2665 20.6025 56.222 20.6256C55.9092 20.7841 55.5821 20.9105 55.2622 21.0476C55.2375 21.0548 55.2145 21.0669 55.1947 21.0832C55.1218 21.1473 55.0169 21.1438 54.9423 21.1972C54.8537 21.2454 54.753 21.2665 54.6525 21.2577C54.6116 21.2665 54.5716 21.2796 54.5335 21.2969C54.4624 21.3236 54.393 21.3557 54.3202 21.3806C54.0964 21.4618 53.8686 21.5313 53.6376 21.5889C53.4045 21.6674 53.1671 21.7328 52.9267 21.7848C52.8842 21.791 52.8425 21.8018 52.8022 21.8168C52.5501 21.8978 52.2905 21.9533 52.0273 21.9824L51.5456 22.0536C51.3838 22.0732 51.2221 22.0839 51.0604 22.0999C51.009 22.0983 50.9578 22.1062 50.9093 22.1231C50.8097 22.1694 50.7013 22.1231 50.6053 22.1533C50.4981 22.1826 50.3876 22.1988 50.2765 22.2014C50.2338 22.2014 50.1912 22.2014 50.1503 22.2014C50.0721 22.2014 49.9957 22.2014 49.9192 22.2139C49.7042 22.2424 49.4909 22.2352 49.2758 22.2548C49.0535 22.2851 48.8281 22.2851 48.6057 22.2548C48.5886 22.253 48.5713 22.253 48.5542 22.2548C48.2518 22.2575 47.9497 22.2343 47.6512 22.1854C47.557 22.1694 47.461 22.1587 47.3668 22.1498C47.0028 22.1246 46.6411 22.0734 46.2844 21.9967C46.1066 21.9628 45.9396 21.9343 45.7689 21.8969C45.5983 21.8596 45.4259 21.8293 45.257 21.7848C45.1184 21.7527 44.9833 21.7171 44.8482 21.6815C44.7131 21.6459 44.5763 21.6085 44.4412 21.5658C44.187 21.491 43.9506 21.3717 43.7035 21.2791C43.5134 21.2061 43.3214 21.1384 43.1365 21.053C43.0043 21.0034 42.8759 20.9439 42.7526 20.8749C42.6307 20.8027 42.5042 20.7385 42.374 20.6826C42.2601 20.6355 42.1554 20.5686 42.0648 20.485L42.2425 20.5509C42.3032 20.5722 42.3625 20.5972 42.4202 20.6256C42.7064 20.7841 43.0228 20.882 43.309 21.0441C43.3797 21.0811 43.4534 21.1121 43.5294 21.1367C43.9186 21.2827 44.299 21.4393 44.6989 21.5497C44.8162 21.5853 44.9335 21.6192 45.0544 21.6494C45.3939 21.7314 45.7405 21.7776 46.0782 21.856C46.4124 21.9058 46.7412 21.9877 47.0753 22.034L47.7863 22.1249C48.0209 22.1533 48.2591 22.1587 48.4973 22.1765H48.5257C48.7319 22.1658 48.9381 22.1765 49.1443 22.1765C49.1781 22.1765 49.2136 22.1765 49.2474 22.1765C49.5033 22.1622 49.7593 22.1533 50.0134 22.1159C50.0806 22.1065 50.1483 22.1006 50.2161 22.0981C50.6327 22.0885 51.0483 22.0522 51.4603 21.9895C51.8851 21.9041 52.3152 21.8542 52.7365 21.7492C52.7933 21.7367 52.8502 21.7171 52.9142 21.7011C53.028 21.6726 53.1399 21.6281 53.2537 21.596C53.5488 21.5177 53.8438 21.4465 54.1318 21.3468L54.569 21.1883L54.9956 21.0245C55.3404 20.9034 55.6621 20.7325 56.0052 20.6078C56.2682 20.4885 56.5384 20.371 56.7837 20.2321C57.029 20.0933 57.2903 19.9526 57.5284 19.7888L57.8448 19.5751C57.9603 19.5021 58.0706 19.4238 58.1808 19.3419C58.2875 19.273 58.388 19.195 58.4811 19.1086C58.5789 19.0071 58.7051 18.9573 58.8011 18.8647L58.8402 18.8309L59.1814 18.5442L59.5103 18.2433C59.7429 18.0338 59.963 17.8108 60.1697 17.5756C60.1783 17.5615 60.1837 17.5457 60.1857 17.5293L59.9884 17.5026C59.8817 17.5538 59.789 17.6302 59.7182 17.7252C59.6615 17.7977 59.5985 17.865 59.5298 17.9264C59.3521 18.0884 59.1832 18.254 58.9966 18.4124L58.4456 18.8736C58.1683 19.0748 57.9124 19.2992 57.6138 19.4808L57.2245 19.7318L56.8192 19.9597C56.7302 20.0208 56.6348 20.0721 56.5348 20.1129C56.3849 20.1598 56.2393 20.2194 56.0994 20.2909C55.632 20.5262 55.1485 20.7279 54.6525 20.8945C54.4179 20.9764 54.1726 21.0298 53.9416 21.1117C53.6518 21.215 53.3461 21.2613 53.0529 21.3824C52.9371 21.4234 52.8182 21.455 52.6974 21.4767C52.4574 21.5266 52.2175 21.5836 51.974 21.6138C51.7304 21.6441 51.4887 21.6975 51.2434 21.7171L50.7209 21.7794C50.5431 21.799 50.3654 21.8061 50.1965 21.8186C50.0955 21.8231 49.9953 21.8393 49.8979 21.8667C49.8413 21.8883 49.7801 21.895 49.7202 21.8863C49.6612 21.8779 49.6014 21.8779 49.5424 21.8863C49.4927 21.8863 49.4429 21.9041 49.3931 21.9023C49.1247 21.888 48.8599 21.9023 48.5844 21.9023C48.2132 21.8948 47.8429 21.8651 47.4753 21.8133C47.2851 21.7883 47.0931 21.7741 46.9065 21.7403L46.3413 21.637C46.2986 21.637 46.2559 21.6227 46.2151 21.6174C45.9449 21.5782 45.6818 21.5266 45.4081 21.4678C45.1547 21.4194 44.9065 21.3467 44.6669 21.2506C44.6282 21.232 44.5868 21.2194 44.5443 21.2132C44.3985 21.191 44.2578 21.1434 44.1284 21.0726C43.9836 21.0281 43.8477 20.9588 43.7267 20.8678C43.5791 20.8197 43.4369 20.7592 43.2947 20.6897C43.2076 20.6524 43.117 20.6167 43.0335 20.5758L42.7206 20.4173C42.6203 20.3565 42.5157 20.303 42.4078 20.2571C42.275 20.1922 42.1468 20.1184 42.0239 20.0363C41.9939 20.0187 41.9674 19.9957 41.9457 19.9686C41.9389 19.9582 41.9345 19.9465 41.9327 19.9342C41.9308 19.9219 41.9316 19.9094 41.935 19.8974C41.935 19.8832 41.9759 19.8832 41.999 19.8778C42.0073 19.8798 42.0152 19.8834 42.0221 19.8885C42.1998 19.9989 42.4025 20.0879 42.5927 20.1823C42.8806 20.3354 43.1828 20.4601 43.4814 20.5989C43.7063 20.7007 43.9379 20.787 44.1746 20.8571C44.299 20.8909 44.4145 20.9337 44.5301 20.9746C44.6172 21.0049 44.7078 21.0209 44.8002 21.0441L45.0455 21.1082C45.1113 21.126 45.1735 21.1509 45.2393 21.1651C45.5036 21.2173 45.7638 21.2887 46.0178 21.3788C46.0814 21.399 46.1461 21.4156 46.2115 21.4287C46.2844 21.4447 46.3626 21.418 46.4284 21.475C46.4941 21.5319 46.5546 21.4643 46.6185 21.4536C46.652 21.4502 46.6857 21.4577 46.7145 21.475C46.7643 21.5034 46.8105 21.5391 46.8549 21.5693C46.9936 21.5213 46.9936 21.5248 47.0771 21.5391L47.4735 21.5925C47.5734 21.5953 47.6723 21.6133 47.7668 21.6459C47.8639 21.6936 47.9715 21.7163 48.0796 21.7118C48.1865 21.7322 48.2962 21.7322 48.4031 21.7118C48.4358 21.7038 48.4699 21.7038 48.5026 21.7118C48.8154 21.7621 49.1337 21.7681 49.4482 21.7296C49.5227 21.7233 49.5977 21.7233 49.6722 21.7296C49.7303 21.7449 49.7899 21.7538 49.8499 21.7563C49.905 21.7563 49.9548 21.7029 50.0099 21.694C50.1142 21.6664 50.2238 21.6664 50.3281 21.694C50.3751 21.709 50.4244 21.7162 50.4738 21.7153C50.7813 21.7153 51.087 21.6637 51.3927 21.6334C51.6985 21.6032 51.9633 21.5302 52.2477 21.475L52.7525 21.3485C52.996 21.2969 53.2288 21.2097 53.4634 21.1473C53.6412 21.1028 53.8296 21.0458 54.0091 20.9871C54.1886 20.9283 54.3735 20.8803 54.5512 20.809C54.8321 20.7004 55.1182 20.6078 55.392 20.4814L55.8079 20.3034L56.2167 20.1111C56.4322 20.0153 56.6418 19.9065 56.8441 19.7852L57.1498 19.6072L57.4413 19.4078C57.7791 19.1816 58.1079 18.943 58.4296 18.6955L58.9522 18.254L59.4498 17.7875C59.4694 17.7697 59.4872 17.7465 59.5085 17.7412C59.608 17.7234 59.6525 17.6361 59.7111 17.5631C59.796 17.4609 59.8913 17.3678 59.9955 17.2854C60.0016 17.28 60.0065 17.2733 60.0097 17.2658C60.0097 17.2658 60.0097 17.2462 60.0097 17.2444C59.9986 17.2343 59.9852 17.2269 59.9706 17.2231C59.9535 17.2205 59.9362 17.2205 59.9191 17.2231L59.9102 17.2462ZM53.4137 20.5794C53.3906 20.6007 53.3728 20.6328 53.3461 20.6399C53.2342 20.6755 53.1186 20.7022 52.9906 20.7343C53.0724 20.6648 53.1204 20.647 53.4119 20.5811C53.435 20.5455 53.4634 20.5348 53.5008 20.5651H53.5399V20.5776L53.5025 20.5633L53.4137 20.5794ZM46.0711 21.0209L45.728 20.9177C45.7116 20.9296 45.6925 20.9374 45.6724 20.9405C45.6523 20.9436 45.6318 20.9419 45.6125 20.9355C45.5048 20.9058 45.3986 20.8707 45.2944 20.8304C45.2801 20.8304 45.2659 20.8482 45.2517 20.8482C45.2375 20.8482 45.2268 20.8322 45.2144 20.8251C45.2267 20.8228 45.2394 20.8228 45.2517 20.8251C45.2675 20.829 45.2826 20.8356 45.2961 20.8446C45.3172 20.8343 45.3402 20.8282 45.3637 20.8268C45.465 20.8518 45.5716 20.8642 45.6729 20.8874C45.6943 20.8874 45.712 20.9159 45.7298 20.9301C45.8845 20.9087 45.8951 20.9105 46.0711 21.0209ZM53.1719 20.923C53.3248 20.8731 53.4812 20.8322 53.6359 20.7895C54.3001 20.592 54.9489 20.3456 55.5768 20.0523C55.7546 19.9758 55.9234 19.8743 56.0994 19.8013C56.2753 19.7283 56.4549 19.6357 56.6202 19.5466C56.9158 19.3959 57.1998 19.2233 57.4698 19.0303C57.6386 18.9252 57.7897 18.7953 57.9497 18.6742C58.1097 18.5531 58.2678 18.4392 58.4278 18.3181C58.4603 18.2941 58.4901 18.2667 58.5167 18.2362C58.6243 18.1146 58.7502 18.0106 58.8899 17.9281C58.9128 17.92 58.9323 17.9043 58.945 17.8836C59.0161 17.7394 59.1814 17.6896 59.265 17.5596C59.2757 17.5418 59.3041 17.5346 59.3272 17.5257C59.3306 17.5235 59.3347 17.5223 59.3387 17.5223C59.3428 17.5223 59.3469 17.5235 59.3503 17.5257C59.3503 17.5382 59.3699 17.5578 59.3663 17.5649C59.3406 17.6063 59.3102 17.6446 59.2757 17.6789L58.7886 18.1276L58.2785 18.5478C58.2238 18.596 58.1642 18.6383 58.1008 18.6742C57.991 18.7433 57.8875 18.8219 57.7915 18.9092C57.7168 18.9698 57.6706 19.0606 57.5675 19.0873C57.485 19.1234 57.4069 19.1688 57.3347 19.2226C57.2532 19.2751 57.1689 19.3233 57.0823 19.3668C56.9307 19.4411 56.7867 19.53 56.6522 19.6321C56.5475 19.7107 56.4303 19.7709 56.3056 19.8102C56.1683 19.8574 56.0357 19.917 55.9092 19.9882C55.6728 20.1146 55.4204 20.209 55.1787 20.3212C55.1413 20.3372 55.1022 20.3461 55.0631 20.3603C55.0156 20.3684 54.9695 20.3834 54.9263 20.4049C54.7759 20.4836 54.6203 20.5521 54.4606 20.6096C54.4311 20.6237 54.4001 20.6345 54.3682 20.6417C54.1523 20.6746 53.9395 20.7252 53.7318 20.793C53.5257 20.8589 53.3159 20.9212 53.1133 21.0049C53.0991 21.0049 53.0813 21.0049 53.0066 21.0049C53.0586 20.9717 53.114 20.9442 53.1719 20.923ZM58.9308 17.6272L58.6464 17.8943C58.5505 17.9816 58.4474 18.0724 58.3496 18.1471C58.2518 18.2219 58.1488 18.3127 58.0474 18.3929L57.7293 18.6172C57.5041 18.7815 57.2703 18.9336 57.029 19.073C56.7979 19.2101 56.5597 19.3419 56.3269 19.4772C56.1723 19.5609 56.0052 19.6179 55.8505 19.6962C55.6959 19.7746 55.5235 19.8582 55.3546 19.9277C55.1858 19.9971 55.0223 20.079 54.8516 20.1431C54.8286 20.1491 54.8065 20.158 54.7859 20.1698C54.6744 20.2309 54.5546 20.2753 54.4304 20.3016C54.3206 20.3478 54.2077 20.3865 54.0927 20.4173C54.0768 20.4208 54.0605 20.4208 54.0447 20.4173C54.0375 20.416 54.0307 20.4133 54.0246 20.4093C54.0185 20.4053 54.0132 20.4002 54.0091 20.3942C54.0091 20.3835 54.0091 20.3586 54.0198 20.355C54.0683 20.3296 54.1189 20.3081 54.1709 20.2909C54.5477 20.1538 54.9263 20.0149 55.2924 19.8493C55.511 19.7621 55.7226 19.657 55.9359 19.5538C56.1491 19.4505 56.3589 19.3401 56.5668 19.2279C56.7612 19.1414 56.944 19.0308 57.1107 18.8985C57.2435 18.8427 57.3642 18.7617 57.4662 18.6599C57.5515 18.5923 57.644 18.5282 57.7328 18.4694C57.8326 18.4058 57.9271 18.3344 58.0155 18.2558C58.0413 18.226 58.072 18.2007 58.1061 18.181C58.2891 18.0719 58.4545 17.9356 58.5967 17.7768C58.6358 17.7358 58.6802 17.702 58.7211 17.6646L58.961 17.4492C59.0235 17.3886 59.0972 17.3409 59.1779 17.3085C59.1227 17.4333 59.0379 17.5427 58.9308 17.6272ZM42.2461 19.7639L42.5713 19.9081C42.8522 20.0434 43.1277 20.1912 43.4121 20.3158C43.6448 20.4334 43.8867 20.5316 44.1355 20.6096C44.3008 20.6577 44.4572 20.7289 44.6207 20.7877C44.7822 20.8432 44.9466 20.8902 45.1131 20.9283C45.2357 20.9533 45.3548 20.9764 45.4792 20.9978C45.6836 21.0369 45.8827 21.0868 46.0818 21.1367C46.2575 21.1726 46.4358 21.1946 46.615 21.2025C46.6399 21.2025 46.6683 21.2025 46.6879 21.2025C46.8764 21.2552 47.0691 21.2921 47.2638 21.3129C47.4059 21.3521 47.557 21.3272 47.701 21.3628C47.717 21.3628 47.7348 21.3628 47.749 21.3628C47.9 21.4257 48.0649 21.4478 48.2271 21.4269C48.3904 21.4246 48.5537 21.4329 48.7159 21.4518C48.8297 21.4625 48.9434 21.4518 49.0572 21.4518C49.0882 21.4579 49.1178 21.47 49.1443 21.4874C49.1443 21.4874 49.1443 21.507 49.1443 21.5106C49.1321 21.5205 49.1172 21.5267 49.1016 21.5284C48.7995 21.5284 48.4955 21.5284 48.1916 21.5017C48.0138 21.4856 47.8467 21.4874 47.6743 21.4661C47.5019 21.4447 47.3793 21.434 47.2318 21.4109C47.0309 21.3633 46.8273 21.3282 46.6221 21.3058C46.5888 21.3036 46.5559 21.297 46.5243 21.2862C46.2097 21.2097 45.8951 21.1509 45.5734 21.1082C45.3313 21.0715 45.0933 21.0119 44.8624 20.9301C44.8042 20.912 44.7448 20.8978 44.6847 20.8874C44.6014 20.8736 44.5189 20.8551 44.4376 20.8322C44.1195 20.6986 43.7906 20.5865 43.4814 20.4333C43.3587 20.3746 43.2308 20.3283 43.1081 20.2731C42.8557 20.168 42.6211 20.0309 42.3811 19.9045C42.3113 19.8789 42.2498 19.8346 42.2034 19.7763C42.2174 19.7735 42.2317 19.7723 42.2461 19.7728V19.7639ZM41.1103 19.0036C41.211 19.0932 41.3213 19.1714 41.4391 19.2368C41.4862 19.2652 41.5278 19.3021 41.5617 19.3454C41.5617 19.3828 41.5457 19.39 41.5262 19.3775C41.2491 19.215 41.001 19.0074 40.7921 18.7632L41.1103 19.0036ZM49.5566 21.4304C49.6026 21.4316 49.6483 21.4364 49.6935 21.4447C49.6935 21.4625 49.6935 21.475 49.6935 21.4767C49.6383 21.4977 49.5793 21.5071 49.5203 21.5043C49.4613 21.5016 49.4035 21.4867 49.3505 21.4607C49.4144 21.4589 49.4873 21.4447 49.5566 21.4393V21.4304ZM46.375 21.0476C46.4399 21.0199 46.5108 21.0094 46.5808 21.0172C46.6509 21.025 46.7178 21.0508 46.775 21.0921L46.375 21.0476ZM41.6791 19.7656C41.6151 19.714 41.5546 19.657 41.5013 19.5983C41.5013 19.5983 41.5013 19.5734 41.5155 19.5627C41.5297 19.552 41.5333 19.5627 41.5386 19.5627L41.7715 19.7407C41.7715 19.7407 41.7715 19.755 41.7715 19.7639C41.7395 19.8137 41.7022 19.7924 41.6791 19.7746V19.7656ZM49.7042 21.2275C49.7071 21.2288 49.7098 21.2308 49.7119 21.2333C49.7141 21.2357 49.7157 21.2386 49.7166 21.2417C49.7146 21.2494 49.7103 21.2563 49.7042 21.2613C49.6781 21.2782 49.6484 21.2886 49.6174 21.2917C49.5865 21.2948 49.5553 21.2905 49.5264 21.2791C49.5922 21.2239 49.6206 21.2168 49.7042 21.2364V21.2275ZM49.937 21.2275C49.9529 21.2301 49.9681 21.2361 49.9814 21.2453C49.9582 21.2517 49.9344 21.2559 49.9104 21.2577C49.8979 21.2577 49.8855 21.2453 49.8641 21.2364C49.8881 21.2313 49.9125 21.2283 49.937 21.2275ZM52.7578 20.7716C52.7713 20.7693 52.7852 20.7693 52.7987 20.7716C52.8218 20.7716 52.8236 20.7859 52.7987 20.7948C52.7846 20.7975 52.7701 20.7975 52.756 20.7948L52.7578 20.7716ZM46.6914 22.3741L46.7607 22.3866V22.4044H46.7127L46.6914 22.3741ZM57.5906 20.3123C57.5906 20.3123 57.6049 20.3123 57.612 20.3123C57.6022 20.3227 57.5915 20.3323 57.58 20.3408C57.58 20.3408 57.5658 20.3408 57.5587 20.3408C57.5685 20.3303 57.5792 20.3208 57.5906 20.3123ZM47.1873 21.1669H47.23V21.183H47.1873V21.1669ZM56.0212 21.1206L56.0087 21.1313V21.1189L56.0212 21.1206ZM53.8651 20.4618H53.8794L53.8687 20.4725L53.8651 20.4618ZM44.4376 21.8453H44.4519H44.4394H44.4376ZM46.471 22.3795V22.367L46.4799 22.3795H46.471Z" fill="#AFF82D"/>
<path d="M61.2824 16.9631L61.5152 16.7156C61.5241 16.7156 61.5472 16.7156 61.5632 16.7156C61.5792 16.7156 61.597 16.7512 61.5863 16.7779C61.5757 16.8046 61.5863 16.7957 61.5774 16.8029C61.4911 16.9765 61.3643 17.1267 61.2077 17.2409C61.1935 17.2515 61.1615 17.2409 61.1402 17.2409C61.1189 17.2409 61.1295 17.2053 61.1402 17.1946L61.2824 16.9631Z" fill="#4A0D77"/>
<path d="M60.79 17.6272H60.7491C60.7491 17.613 60.7491 17.5952 60.7491 17.5845C60.7491 17.5738 60.8078 17.5542 60.8078 17.5738C60.8063 17.5928 60.8002 17.6111 60.79 17.6272Z" fill="#4A0D77"/>
<path d="M60.9571 17.4047C60.969 17.3829 60.9833 17.3626 60.9997 17.3441C60.9997 17.3441 61.0264 17.3441 61.0406 17.3548C61.0321 17.3755 61.0214 17.3952 61.0086 17.4136C61.0086 17.4136 60.9802 17.4082 60.9571 17.4047Z" fill="#4A0D77"/>
<path d="M60.3296 17.3886L60.3901 17.369C60.3927 17.3772 60.3927 17.3859 60.3901 17.394C60.3848 17.4087 60.3756 17.4216 60.3634 17.4314C60.3489 17.4384 60.3333 17.4427 60.3172 17.4438L60.3296 17.3886Z" fill="#4A0D77"/>
<path d="M60.2177 17.3192L60.207 17.2783C60.2224 17.2774 60.2379 17.2774 60.2532 17.2783C60.2551 17.2853 60.2551 17.2926 60.2532 17.2996L60.2177 17.3192Z" fill="#4A0D77"/>
<path d="M61.0104 16.2031C61.0104 16.2031 61.0104 16.1851 61.0104 16.1815C61.0104 16.1779 61.0394 16.1689 61.0431 16.1815C61.0429 16.1854 61.0419 16.1893 61.04 16.1927C61.0381 16.1961 61.0354 16.1991 61.0322 16.2013C61.0322 16.2013 61.0177 16.2031 61.0104 16.2031Z" fill="#4A0D77"/>
<path d="M59.9529 16.4984V16.4681C59.9654 16.4725 59.9769 16.4791 59.9869 16.4877C59.9869 16.4877 59.9869 16.5002 59.9869 16.5073L59.9529 16.4984Z" fill="#4A0D77"/>
<path d="M60.1751 16.7278L60.1519 16.7182L60.1674 16.7067L60.1751 16.7278Z" fill="#4A0D77"/>
<path d="M59.8409 17.3228C59.8409 17.2676 59.8409 17.2676 59.912 17.2516L59.8391 17.3281L59.8409 17.3228Z" fill="#4A0D77"/>
<path d="M60.495 16.53L60.5027 16.5108L60.5143 16.5243L60.495 16.53Z" fill="#4A0D77"/>
<path d="M9.8701 5.99862L8.71122 7.36429C8.68668 7.39163 8.65231 7.40812 8.61566 7.41012C8.57901 7.41212 8.54306 7.39948 8.5157 7.37497C7.77623 6.68109 6.79875 6.29859 5.78556 6.30665C5.3478 6.29229 4.91169 6.36729 4.50376 6.52707C4.09584 6.68685 3.72462 6.92808 3.41269 7.23609C2.7503 7.87233 2.4114 8.74954 2.39599 9.86771C2.36931 10.7799 2.6917 11.6679 3.29715 12.3498C3.89674 13.0192 4.73095 13.354 5.79978 13.354C6.71931 13.354 7.64476 12.9688 8.57613 12.1984C8.60334 12.1761 8.6381 12.1651 8.67318 12.1678C8.70827 12.1704 8.74098 12.1865 8.76454 12.2127L9.95542 13.5623C9.97658 13.5871 9.9882 13.6187 9.9882 13.6513C9.9882 13.684 9.97658 13.7155 9.95542 13.7404C8.71596 15.0105 7.33074 15.6449 5.79978 15.6437C3.98561 15.6437 2.56367 15.0793 1.53394 13.9505C0.513251 12.8277 -0.0355865 11.3537 0.00179115 9.83566C-0.0155458 8.31773 0.550904 6.85132 1.58371 5.74045C2.62291 4.61159 4.02827 4.03945 5.79978 4.02402C7.31415 4.02402 8.66856 4.61753 9.86299 5.80455C9.87621 5.81681 9.88688 5.83156 9.89439 5.84796C9.9019 5.86435 9.90611 5.88208 9.90677 5.90011C9.90743 5.91814 9.90453 5.93612 9.89824 5.95303C9.89195 5.96993 9.88239 5.98543 9.8701 5.99862Z" fill="white"/>
<path d="M15.3801 13.2845V15.3019C15.3798 15.3359 15.3669 15.3685 15.344 15.3935C15.321 15.4185 15.2895 15.4341 15.2557 15.4372C13.9997 15.5559 13.0381 15.3315 12.3709 14.7641C11.6837 14.1801 11.3394 13.2489 11.3383 11.9705V0.13532C11.3383 0.099431 11.3525 0.0650118 11.3778 0.0396344C11.4032 0.0142569 11.4375 0 11.4733 0L13.5974 0C13.6332 0 13.6676 0.0142569 13.6929 0.0396344C13.7182 0.0650118 13.7325 0.099431 13.7325 0.13532V11.8565C13.7325 12.3313 13.851 12.6803 14.0879 12.9035C14.3024 13.1029 14.6852 13.1848 15.2362 13.1492C15.2546 13.1482 15.273 13.151 15.2903 13.1574C15.3076 13.1637 15.3235 13.1735 15.3369 13.1861C15.3504 13.1988 15.3611 13.214 15.3686 13.2309C15.376 13.2478 15.3799 13.2661 15.3801 13.2845Z" fill="white"/>
<path d="M27.5929 9.82497C27.6103 10.5891 27.474 11.3489 27.1922 12.0592C26.9103 12.7695 26.4887 13.4157 25.9524 13.9594C24.8539 15.0823 23.4699 15.6437 21.8003 15.6437C21.026 15.6624 20.2564 15.5182 19.5412 15.2204C18.826 14.9226 18.1811 14.4778 17.6482 13.9148C17.111 13.3786 16.6865 12.7399 16.3998 12.0365C16.1131 11.3331 15.9701 10.5793 15.9792 9.81963C15.9698 9.06386 16.1127 8.31397 16.3995 7.61487C16.6863 6.91578 17.111 6.28187 17.6482 5.75112C18.1846 5.19403 18.8306 4.7546 19.5453 4.46067C20.26 4.16674 21.0279 4.02471 21.8003 4.04359C23.4699 4.04359 24.8539 4.59615 25.9524 5.70127C27.0508 6.80638 27.5977 8.18095 27.5929 9.82497ZM19.399 7.24142C18.7117 7.84324 18.3675 8.70443 18.3663 9.82497C18.3651 10.9455 18.7093 11.8144 19.399 12.4317C20.0508 13.0331 20.907 13.3629 21.7932 13.354C22.6805 13.3676 23.5386 13.0364 24.1874 12.4299C24.8616 11.8126 25.1987 10.9437 25.1987 9.82319C25.1987 8.70264 24.8616 7.84146 24.1874 7.23964C23.5334 6.64374 22.6771 6.32024 21.7932 6.33514C20.9099 6.32587 20.0554 6.64933 19.399 7.24142Z" fill="white"/>
<path d="M32.9518 8.64447C33.918 8.80556 34.832 9.19497 35.618 9.78045C36.329 10.3336 36.6845 11.1052 36.6845 12.0951C36.6845 13.2916 36.2543 14.1819 35.394 14.7659C34.5339 15.3477 33.5168 15.6521 32.479 15.6384C30.8616 15.6384 29.5652 14.9392 28.59 13.5409C28.5711 13.514 28.5626 13.481 28.5662 13.4482C28.5698 13.4154 28.5852 13.3851 28.6096 13.3629L29.9142 12.1165C29.9277 12.1037 29.9436 12.0939 29.9611 12.0875C29.9785 12.0812 29.9971 12.0786 30.0156 12.0797C30.0341 12.0809 30.0521 12.0859 30.0687 12.0943C30.0852 12.1028 30.0997 12.1146 30.1115 12.129C30.7538 12.878 31.5157 13.2869 32.3973 13.3557C32.8482 13.3917 33.3004 13.3063 33.7073 13.1083C33.8906 13.031 34.0461 12.8997 34.1531 12.7318C34.2601 12.5638 34.3135 12.3672 34.3063 12.1681C34.3063 11.3752 33.6812 10.8707 32.4311 10.6547C30.0351 10.2665 28.8294 9.1899 28.814 7.42481C28.7983 6.95147 28.9012 6.48173 29.1132 6.05844C29.3253 5.63515 29.6397 5.27179 30.028 5.00151C30.867 4.39911 31.879 4.08662 32.911 4.11124C34.1773 4.08031 35.4052 4.54829 36.3308 5.41459C36.3437 5.4272 36.354 5.44229 36.361 5.45896C36.3681 5.47562 36.3717 5.49353 36.3717 5.51163C36.3717 5.52972 36.3681 5.54764 36.361 5.5643C36.354 5.58097 36.3437 5.59606 36.3308 5.60867L35.1523 6.85504C35.1297 6.87898 35.099 6.89368 35.0662 6.89631C35.0334 6.89894 35.0007 6.88931 34.9746 6.86928C34.2861 6.37073 33.6113 6.12146 32.9501 6.12146C32.5224 6.11469 32.1007 6.22291 31.729 6.43483C31.5549 6.52902 31.4124 6.67245 31.3192 6.84722C31.2259 7.02199 31.1861 7.22039 31.2046 7.41769C31.2035 7.51195 31.2149 7.60595 31.2384 7.69723C31.2606 7.78438 31.3012 7.86574 31.3575 7.93582C31.4161 8.00882 31.4677 8.06936 31.5103 8.11387C31.5699 8.17656 31.6404 8.22784 31.7183 8.26522L31.9369 8.38451C32.0199 8.42434 32.1078 8.45308 32.1982 8.46998C32.3209 8.50025 32.4044 8.52161 32.4488 8.53586C32.4933 8.5501 32.5839 8.57147 32.7208 8.59996C32.8576 8.62844 32.9376 8.64447 32.9518 8.64447Z" fill="white"/>
<path d="M63.801 4.22519L65.7437 4.21629C65.7797 4.21629 65.8142 4.23049 65.8399 4.25582C65.8655 4.28114 65.8801 4.31556 65.8806 4.35161V5.51608C66.3937 4.55934 67.2824 4.06376 68.5467 4.02934C69.4109 4.02765 70.2574 4.27487 70.9853 4.74155C71.0131 4.76072 71.0331 4.78926 71.0415 4.82196C71.05 4.85465 71.0465 4.88931 71.0316 4.9196L70.1197 6.70013C70.1028 6.73039 70.0751 6.7531 70.0421 6.76367C70.0091 6.77424 69.9733 6.7719 69.942 6.75711C69.4278 6.48619 68.859 6.33581 68.2783 6.31732C67.6986 6.2994 67.1354 6.51264 66.7124 6.91023C66.486 7.11666 66.3071 7.3699 66.188 7.65243C66.0689 7.93496 66.0125 8.24003 66.0228 8.54654L65.9605 15.3125C65.9605 15.3305 65.957 15.3482 65.9501 15.3647C65.9432 15.3813 65.9331 15.3963 65.9204 15.4089C65.9076 15.4215 65.8925 15.4314 65.8759 15.4381C65.8593 15.4448 65.8416 15.4481 65.8237 15.4479L63.7014 15.4283C63.6654 15.4278 63.6311 15.4132 63.6058 15.3875C63.5805 15.3618 63.5663 15.3272 63.5663 15.2912L63.6659 4.36229C63.6659 4.32624 63.6801 4.29164 63.7053 4.26597C63.7306 4.24031 63.765 4.22566 63.801 4.22519Z" fill="white"/>
<path d="M43.8547 13.6086C45.154 13.5979 46.1653 13.1154 46.8568 12.161C46.8767 12.1341 46.9059 12.1155 46.9388 12.1089C46.9716 12.1023 47.0057 12.1082 47.0345 12.1254L48.5667 13.0922C48.5826 13.1026 48.5963 13.1161 48.6067 13.132C48.6172 13.1479 48.6242 13.1657 48.6274 13.1845C48.6305 13.2033 48.6298 13.2225 48.6252 13.2409C48.6205 13.2594 48.6121 13.2767 48.6004 13.2917C48.0431 14.0209 47.3236 14.6099 46.4991 15.0117C45.6746 15.4136 44.7679 15.6172 43.8511 15.6063C42.0506 15.6224 40.6748 15.0722 39.6617 13.938C38.6633 12.848 38.1194 11.4163 38.142 9.93715C38.112 8.45452 38.6472 7.01618 39.6386 5.91493C40.647 4.76827 42.0221 4.17951 43.764 4.14865C45.3602 4.12016 46.6755 4.61871 47.7099 5.64429C48.7444 6.66988 49.2687 7.95423 49.283 9.49735C49.283 9.85346 49.2972 10.2434 49.283 10.6511C49.283 10.6867 49.269 10.7209 49.244 10.7462C49.2191 10.7715 49.1852 10.786 49.1497 10.7865C48.4387 10.7865 40.4829 10.8363 40.4829 10.8363C40.6846 11.5925 41.0898 12.2786 41.6542 12.8198C42.2557 13.3623 43.0462 13.6456 43.8547 13.6086ZM40.6322 8.86349C40.6275 8.88704 40.6291 8.91142 40.6368 8.93417C40.6445 8.95691 40.658 8.97724 40.676 8.99311C40.694 9.00897 40.7159 9.01982 40.7394 9.02457C40.7629 9.02933 40.7872 9.02781 40.8099 9.02017C41.7757 8.62826 42.8057 8.41936 43.8476 8.40411C44.8238 8.38096 45.7936 8.56798 46.6915 8.95251C46.7144 8.9609 46.7392 8.96291 46.7631 8.95832C46.7871 8.95374 46.8094 8.94274 46.8276 8.92649C46.8458 8.91023 46.8593 8.88934 46.8667 8.86602C46.874 8.8427 46.8749 8.81783 46.8692 8.79405C46.6808 8.048 46.336 7.27882 45.8578 6.86217C45.2968 6.38232 44.5778 6.12848 43.8405 6.14996C42.918 6.17311 42.1341 6.42416 41.5973 6.90134C41.1299 7.32867 40.8046 8.10854 40.6322 8.86349Z" fill="white"/>
<path d="M58.0688 12.8198C58.6316 12.2774 59.0349 11.5907 59.2348 10.8345C59.2348 10.8345 51.2737 10.7918 50.5698 10.7847C50.5342 10.7842 50.5001 10.7698 50.4748 10.7445C50.4496 10.7192 50.4352 10.6851 50.4348 10.6493C50.4348 10.2416 50.4348 9.857 50.4436 9.49555C50.4579 7.95243 50.9822 6.66807 52.0167 5.64249C53.0511 4.61691 54.3664 4.11836 55.9626 4.14685C57.7045 4.17652 59.079 4.76528 60.0862 5.91313C61.077 7.01644 61.6097 8.45707 61.5757 9.94069C61.5999 11.4202 61.0559 12.8524 60.056 13.9415C59.0429 15.0704 57.6689 15.6259 55.8666 15.6099C54.9498 15.6207 54.0431 15.4171 53.2186 15.0153C52.3942 14.6135 51.6746 14.0245 51.1173 13.2952C51.1054 13.2802 51.0969 13.2628 51.0922 13.2442C51.0876 13.2257 51.0869 13.2063 51.0903 13.1875C51.0936 13.1686 51.1009 13.1507 51.1117 13.1349C51.1225 13.1191 51.1365 13.1058 51.1528 13.0958L52.6832 12.129C52.7121 12.1122 52.7461 12.1065 52.7788 12.1131C52.8115 12.1196 52.8408 12.1379 52.861 12.1646C53.5524 13.1189 54.562 13.6015 55.8613 13.6121C56.6725 13.6493 57.4657 13.3646 58.0688 12.8198ZM58.1115 6.89954C57.5783 6.42236 56.7891 6.17131 55.8666 6.14816C55.1297 6.12661 54.4113 6.38049 53.851 6.86037C53.364 7.27701 53.0263 8.0462 52.8396 8.79225C52.834 8.81603 52.8349 8.8409 52.8422 8.86422C52.8495 8.88754 52.863 8.90843 52.8812 8.92469C52.8995 8.94094 52.9217 8.95194 52.9457 8.95652C52.9697 8.96111 52.9944 8.9591 53.0174 8.95071C53.9151 8.56564 54.885 8.37861 55.8613 8.40231C56.9031 8.41756 57.9331 8.62646 58.8989 9.01837C58.9216 9.02661 58.9462 9.02857 58.97 9.02405C58.9937 9.01953 59.0159 9.0087 59.034 8.99269C59.0522 8.97667 59.0657 8.95607 59.0732 8.93303C59.0807 8.90998 59.0819 8.88534 59.0766 8.86169C58.9167 8.10852 58.5914 7.32865 58.1115 6.90132V6.89954Z" fill="white"/>
</svg>
